<?xml version="1.0" encoding="UTF-8"?>
<svg xmlns="http://www.w3.org/2000/svg" width="1600" height="1066" viewBox="0 0 1600 1066" preserveAspectRatio="xMidYMid slice">
  <defs>
    <linearGradient id="g" x1="0" x2="1">
      <stop offset="0" stop-color="#0f1724" />
      <stop offset="1" stop-color="#0b3a2e" />
    </linearGradient>
  </defs>
  <rect width="100%" height="100%" fill="url(#g)" />
  <g transform="translate(160 120) scale(1.2)" fill="#ffffff" fill-opacity="0.95">
    <rect x="40" y="20" width="220" height="420" rx="8" fill="#ffffff" fill-opacity="0.06" />
    <rect x="300" y="0" width="260" height="480" rx="8" fill="#ffffff" fill-opacity="0.07" />
    <rect x="600" y="40" width="200" height="440" rx="8" fill="#ffffff" fill-opacity="0.065" />

    <!-- windows -->
    <g fill="#ffffff" fill-opacity="0.9">
      <rect x="70" y="60" width="40" height="40" rx="4" />
      <rect x="130" y="60" width="40" height="40" rx="4" />
      <rect x="70" y="120" width="40" height="40" rx="4" />
      <rect x="130" y="120" width="40" height="40" rx="4" />

      <rect x="340" y="40" width="56" height="56" rx="4" />
      <rect x="410" y="40" width="56" height="56" rx="4" />
      <rect x="480" y="40" width="56" height="56" rx="4" />
      <rect x="340" y="110" width="56" height="56" rx="4" />
      <rect x="410" y="110" width="56" height="56" rx="4" />
      <rect x="480" y="110" width="56" height="56" rx="4" />

      <rect x="630" y="80" width="40" height="40" rx="4" />
      <rect x="690" y="80" width="40" height="40" rx="4" />
      <rect x="630" y="140" width="40" height="40" rx="4" />
      <rect x="690" y="140" width="40" height="40" rx="4" />
    </g>
  </g>

  <g transform="translate(60 820)" fill="#ffffff" fill-opacity="0.7">
    <rect x="0" y="0" width="1200" height="8" rx="4" />
  </g>
</svg>
